<svg xmlns="http://www.w3.org/2000/svg" viewBox="0 0 162.24 114.98"><defs><style>.cls-1{fill:#fff;}</style></defs><title>Asset 4</title><g id="Layer_2" data-name="Layer 2"><g id="Layer_2-2" data-name="Layer 2"><path class="cls-1" d="M68.79,9.81a9.27,9.27,0,0,1,2.9-7.1A10.71,10.71,0,0,1,79.3,0a9.76,9.76,0,0,1,7,2.55A8.84,8.84,0,0,1,89,9.26q0,3-2.76,6.18a21.42,21.42,0,0,1-5.31,4.43L88.39,29l.62.76.15-.29a24,24,0,0,0,1.67-6.71H95.5a29.71,29.71,0,0,1-2.08,8.49,22.74,22.74,0,0,1-1.14,2.49l7.52,9.18H93.2l-3.92-4.68a19.15,19.15,0,0,1-5.88,4.21,16.77,16.77,0,0,1-7,1.43,13.25,13.25,0,0,1-9.19-3.13,10.52,10.52,0,0,1-3.5-8.23,12.57,12.57,0,0,1,2.75-8.17A24.92,24.92,0,0,1,73.38,19l-.29-.32A24.21,24.21,0,0,1,70,13.86,9.73,9.73,0,0,1,68.79,9.81ZM76.93,39.2A10.91,10.91,0,0,0,81.68,38a13.86,13.86,0,0,0,4.22-3.09l.29-.32-3.1-3.78-6.82-8.32a21.87,21.87,0,0,0-4.72,3.66A8.46,8.46,0,0,0,69,31.94a6.83,6.83,0,0,0,2.2,5.27A8.26,8.26,0,0,0,76.93,39.2ZM74,9a6.29,6.29,0,0,0,.85,2.65A20.49,20.49,0,0,0,77.08,15l1.2,1.49a21,21,0,0,0,3.37-2.75,6.48,6.48,0,0,0,2.14-4.31,4.88,4.88,0,0,0-1.35-3.59,4.76,4.76,0,0,0-3.54-1.36,5.05,5.05,0,0,0-3.54,1.23A4.19,4.19,0,0,0,74,9Z"/><path class="cls-1" d="M21.72,108.86a14,14,0,0,0,7-1.83A15.38,15.38,0,0,0,34,102.14l5.22,3.9a22,22,0,0,1-7.53,6.48,21,21,0,0,1-10,2.4,20.79,20.79,0,0,1-8.46-1.74A22,22,0,0,1,1.71,101.51a22.23,22.23,0,0,1,0-17.1A22,22,0,0,1,13.26,72.74,20.8,20.8,0,0,1,21.72,71a21,21,0,0,1,10,2.4,22,22,0,0,1,7.53,6.48L34,83.78a15.38,15.38,0,0,0-5.25-4.89,14,14,0,0,0-7-1.83,13.79,13.79,0,0,0-5.85,1.26,15.33,15.33,0,0,0-4.77,3.42,16.5,16.5,0,0,0-3.24,5,16.51,16.51,0,0,0,0,12.36,16.5,16.5,0,0,0,3.24,5,15.33,15.33,0,0,0,4.77,3.42A13.79,13.79,0,0,0,21.72,108.86Z"/><path class="cls-1" d="M72.24,70.94h6.42v43.92H72.24V101.24H55.14v13.62H48.72V70.94h6.42V95.6h17.1V70.94Z"/><path class="cls-1" d="M88.14,70.94h6.42v44H88.14Z"/><path class="cls-1" d="M110.46,108.68H128.4V115H104v-44h6.42Z"/><path class="cls-1" d="M144.3,108.68h17.94V115H137.88v-44h6.42Z"/></g></g></svg>